<svg width="181.6" height="82.862" viewBox="0 0 181.6 82.862" xmlns="http://www.w3.org/2000/svg"><g id="svgGroup" stroke-linecap="round" fill-rule="evenodd" font-size="9pt" stroke="#000" stroke-width="0.25mm" fill="#000000" style="stroke:#000;stroke-width:0.25mm;fill:#000000"><path d="M 50.3 40.462 L 25.4 40.462 Q 25.2 40.462 25.2 40.262 Q 25.2 39.762 25.95 39.012 Q 26.503 38.459 26.92 38.314 A 0.853 0.853 0 0 1 27.2 38.262 L 51.7 38.262 Q 56.1 31.762 60.8 25.512 A 154.459 154.459 0 0 1 67.608 17.07 A 132.955 132.955 0 0 1 70.3 14.062 A 61.174 61.174 0 0 1 77.403 7.637 A 49.839 49.839 0 0 1 82.65 4.112 A 38.864 38.864 0 0 1 86.937 1.941 Q 89.221 0.968 91.325 0.492 A 18.242 18.242 0 0 1 94.3 0.062 Q 96.343 -0.084 98.093 0.116 A 15.23 15.23 0 0 1 99.35 0.312 Q 101.539 0.749 102.924 1.897 A 6.08 6.08 0 0 1 103 1.962 Q 104.3 2.962 104.9 4.462 Q 105.5 5.962 105.5 7.562 Q 105.5 7.962 105.45 8.362 A 10.439 10.439 0 0 1 105.392 8.759 Q 105.358 8.966 105.313 9.196 A 17.262 17.262 0 0 1 105.3 9.262 A 6.31 6.31 0 0 1 104.925 10.542 A 4.63 4.63 0 0 1 104.1 11.862 Q 103.833 12.129 103.565 12.218 A 0.838 0.838 0 0 1 103.3 12.262 A 0.777 0.777 0 0 1 103.153 12.249 Q 102.671 12.156 103.2 11.362 A 4.48 4.48 0 0 0 104.056 9.188 A 5.853 5.853 0 0 0 104.1 8.462 Q 104.1 7.562 103.8 6.862 A 4.986 4.986 0 0 0 101.389 4.134 A 6.516 6.516 0 0 0 101.15 4.012 A 9.202 9.202 0 0 0 98.605 3.218 A 12.297 12.297 0 0 0 96.6 3.062 Q 91.603 3.062 86.128 6.247 A 33.834 33.834 0 0 0 84.8 7.062 A 43.537 43.537 0 0 0 80.272 10.442 Q 78.123 12.261 75.941 14.51 A 71.988 71.988 0 0 0 75.65 14.812 A 127.334 127.334 0 0 0 69.838 21.323 A 152.886 152.886 0 0 0 66.35 25.662 A 307.285 307.285 0 0 0 57.675 37.439 A 335.223 335.223 0 0 0 57.1 38.262 L 71.8 38.262 Q 72.7 36.462 73.65 34.662 Q 74.6 32.862 75.6 31.062 Q 79.3 24.362 83.25 18.212 Q 87.2 12.062 90.3 7.062 A 2.043 2.043 0 0 1 90.436 6.861 Q 90.593 6.658 90.75 6.593 A 0.387 0.387 0 0 1 90.9 6.562 A 0.597 0.597 0 0 1 91.101 6.593 Q 91.275 6.655 91.358 6.838 A 0.726 0.726 0 0 1 91.4 6.962 A 0.835 0.835 0 0 1 91.423 7.096 Q 91.444 7.359 91.277 7.575 A 0.92 0.92 0 0 1 91.2 7.662 Q 86.6 14.662 83.15 22.462 Q 79.7 30.262 76.9 38.262 L 81.8 38.262 Q 82 38.262 82 38.462 Q 82 38.833 81.353 39.55 A 8.12 8.12 0 0 1 81.25 39.662 Q 80.625 40.328 80.105 40.439 A 0.977 0.977 0 0 1 79.9 40.462 L 76.1 40.462 Q 75.2 43.062 73.95 47.412 A 115.303 115.303 0 0 0 71.87 55.875 A 125.832 125.832 0 0 0 71.75 56.462 Q 70.8 61.162 70.8 65.062 A 18.232 18.232 0 0 0 70.912 67.155 Q 71.159 69.287 71.95 70.662 Q 73.1 72.662 75.6 72.662 L 76.2 72.662 A 1.887 1.887 0 0 0 76.798 72.562 A 2.009 2.009 0 0 0 76.8 72.562 A 5.479 5.479 0 0 0 78.405 71.995 Q 79.32 71.512 80.25 70.662 A 26.946 26.946 0 0 0 82.203 68.672 A 34.244 34.244 0 0 0 83.7 66.862 Q 86.1 63.762 88.1 60.262 Q 89.631 57.582 90.576 55.84 A 88.291 88.291 0 0 0 91.1 54.862 A 5.483 5.483 0 0 1 91.281 54.59 Q 91.656 54.062 91.9 54.062 Q 92.275 54.062 92.298 54.676 A 2.227 2.227 0 0 1 92.3 54.762 A 1.396 1.396 0 0 1 92.265 55.06 Q 92.197 55.368 92 55.762 Q 90.6 58.262 88.45 62.012 Q 86.3 65.762 83.7 68.962 Q 81.8 71.162 79.7 72.762 A 11.11 11.11 0 0 1 77.412 74.123 A 9.217 9.217 0 0 1 75.3 74.762 A 16.207 16.207 0 0 1 74.446 74.882 A 14.012 14.012 0 0 1 74.15 74.912 Q 73.6 74.962 73 74.962 A 8.601 8.601 0 0 1 69.687 74.333 A 8.154 8.154 0 0 1 67.9 73.312 A 6.573 6.573 0 0 1 66.157 71.291 Q 65.639 70.39 65.278 69.236 A 15.03 15.03 0 0 1 64.9 67.762 Q 64.7 66.662 64.6 65.462 A 28.686 28.686 0 0 1 64.506 63.718 A 25.038 25.038 0 0 1 64.5 63.162 A 34.945 34.945 0 0 1 66.07 52.935 A 40.076 40.076 0 0 1 66.55 51.462 A 173.334 173.334 0 0 1 69.171 44.399 A 145.253 145.253 0 0 1 70.8 40.462 L 55.4 40.462 Q 53.8 42.662 52.3 45.012 Q 50.8 47.362 49.2 49.662 Q 46.3 53.862 42.25 58.512 Q 38.2 63.162 33.4 67.312 A 55.442 55.442 0 0 1 24.656 73.54 A 50.867 50.867 0 0 1 23.35 74.262 A 28.605 28.605 0 0 1 17.098 76.74 A 24.273 24.273 0 0 1 12.8 77.462 A 3.246 3.246 0 0 1 12.347 77.54 A 4.346 4.346 0 0 1 11.9 77.562 L 10.9 77.562 Q 7.5 77.562 4.4 76.362 A 6.496 6.496 0 0 1 0.583 72.577 A 8.82 8.82 0 0 1 0.3 71.762 A 5.794 5.794 0 0 1 0.042 70.558 A 7.304 7.304 0 0 1 0 69.762 Q 0 67.062 1.7 64.862 Q 2.1 64.462 2.45 64.312 Q 2.757 64.18 2.795 64.626 A 1.623 1.623 0 0 1 2.8 64.762 Q 3.026 68.448 4.864 70.577 A 7.134 7.134 0 0 0 6.25 71.812 A 12.335 12.335 0 0 0 11.866 73.858 A 15.814 15.814 0 0 0 13.7 73.962 A 21.754 21.754 0 0 0 19.456 73.158 A 26.924 26.924 0 0 0 22.15 72.262 Q 26.5 70.562 29.9 67.662 A 56.489 56.489 0 0 0 36.983 60.072 A 63.689 63.689 0 0 0 38.05 58.662 Q 41.8 53.562 45.2 48.362 Q 46.4 46.362 47.7 44.362 Q 49 42.362 50.3 40.462 Z M 167.3 82.862 Q 162.5 82.862 158.65 80.762 Q 154.8 78.662 151.75 75.262 Q 148.7 71.862 146.2 68.062 A 24.586 24.586 0 0 1 145.536 67.002 Q 144.871 65.885 144.067 64.332 A 85.017 85.017 0 0 1 143.8 63.812 Q 142.4 61.062 140.9 57.762 Q 139.4 54.462 137.95 51.312 A 256.07 256.07 0 0 0 136.912 49.083 Q 136.5 48.21 136.122 47.429 A 130.226 130.226 0 0 0 135.4 45.962 A 33.656 33.656 0 0 0 134.897 44.915 Q 134.123 43.382 133.572 42.785 A 2.34 2.34 0 0 0 133.45 42.662 A 2.358 2.358 0 0 1 133.255 42.458 Q 132.841 41.967 133.099 41.583 A 0.815 0.815 0 0 1 133.2 41.462 L 133.25 41.462 Q 133.3 41.462 133.3 41.362 A 0.927 0.927 0 0 1 133.579 41.166 Q 133.826 41.056 134.129 41.116 A 1.391 1.391 0 0 1 134.3 41.162 Q 134.8 41.362 135.25 41.562 Q 135.7 41.762 136.2 41.962 A 23.778 23.778 0 0 0 142.757 43.138 A 27.322 27.322 0 0 0 143.9 43.162 A 26.733 26.733 0 0 0 152.366 41.757 A 29.909 29.909 0 0 0 152.5 41.712 Q 156.8 40.262 160.4 37.612 Q 164 34.962 166.15 31.112 A 17.074 17.074 0 0 0 168.258 23.793 A 20.586 20.586 0 0 0 168.3 22.462 Q 168.3 18.162 166.2 14.262 A 17.056 17.056 0 0 0 161.262 8.628 A 20.731 20.731 0 0 0 160 7.762 A 28.231 28.231 0 0 0 155.477 5.482 Q 152.25 4.183 148.2 3.312 Q 141 1.762 133.3 1.762 Q 127.4 1.762 121.45 2.912 A 53.139 53.139 0 0 0 113.003 5.255 A 47.165 47.165 0 0 0 110.4 6.312 A 31.774 31.774 0 0 0 105.169 9.207 A 26.037 26.037 0 0 0 101.8 11.962 Q 99.363 14.399 97.365 18.155 A 36.757 36.757 0 0 0 97.1 18.662 A 19.457 19.457 0 0 0 95.409 23.242 A 16.368 16.368 0 0 0 95 26.862 Q 95 28.762 95.6 30.562 Q 96.5 33.362 99.05 34.812 A 11.158 11.158 0 0 0 103.816 36.226 A 13.492 13.492 0 0 0 104.8 36.262 A 15.418 15.418 0 0 0 108.291 35.846 A 18.961 18.961 0 0 0 110 35.362 A 0.319 0.319 0 0 0 110.056 35.357 Q 110.087 35.351 110.111 35.339 A 0.148 0.148 0 0 0 110.15 35.312 Q 110.191 35.27 110.267 35.263 A 0.352 0.352 0 0 1 110.3 35.262 A 0.666 0.666 0 0 1 110.406 35.269 Q 110.591 35.299 110.6 35.447 A 0.253 0.253 0 0 1 110.6 35.462 Q 110.6 35.932 110.069 36.137 A 1.578 1.578 0 0 1 110 36.162 Q 107.3 37.162 103.9 37.162 Q 100.7 37.162 97.75 35.962 Q 94.8 34.762 92.95 32.262 Q 91.1 29.762 91.1 25.862 A 19.774 19.774 0 0 1 91.401 22.345 A 16.193 16.193 0 0 1 92 20.012 Q 92.9 17.362 94.4 15.162 A 23.03 23.03 0 0 1 99.747 9.55 A 27.261 27.261 0 0 1 101.3 8.462 A 40.379 40.379 0 0 1 108.289 4.856 A 47.622 47.622 0 0 1 111 3.862 Q 116.4 2.062 122.2 1.212 Q 128 0.362 133.6 0.362 A 99.135 99.135 0 0 1 147.871 1.364 A 91.09 91.09 0 0 1 148.85 1.512 Q 156.2 2.662 161 4.762 Q 166.051 6.873 168.943 9.95 A 14.761 14.761 0 0 1 170.6 12.062 Q 173.5 16.562 173.5 21.462 A 20.494 20.494 0 0 1 172.745 27.121 A 17.412 17.412 0 0 1 170.9 31.362 Q 168.3 35.662 164.05 38.612 Q 159.8 41.562 154.75 43.112 A 34.626 34.626 0 0 1 146.951 44.587 A 31.358 31.358 0 0 1 144.8 44.662 Q 142.7 44.662 140.65 44.412 Q 138.6 44.162 136.7 43.662 A 115.24 115.24 0 0 1 137.444 44.683 Q 138.459 46.093 139.765 47.981 A 342.361 342.361 0 0 1 140.2 48.612 A 650.004 650.004 0 0 1 143.434 53.355 A 738.597 738.597 0 0 1 144.55 55.012 Q 146.8 58.362 148.75 61.262 Q 150.7 64.162 151.9 65.662 Q 154.1 68.562 157.1 71.862 A 33.38 33.38 0 0 0 163.595 77.426 A 31.374 31.374 0 0 0 163.65 77.462 A 14.649 14.649 0 0 0 167.435 79.239 A 12.428 12.428 0 0 0 171 79.762 A 8.745 8.745 0 0 0 173.355 79.457 A 7.186 7.186 0 0 0 175.5 78.462 Q 177.4 77.162 178.4 75.462 A 7.682 7.682 0 0 0 179.221 73.33 Q 179.5 72.123 179.5 70.662 A 18.735 18.735 0 0 0 178.905 66.03 A 20.356 20.356 0 0 0 178.9 66.012 Q 178.3 63.662 177.5 61.862 Q 176.2 58.962 175.3 57.762 A 13.19 13.19 0 0 1 175.13 57.483 Q 174.807 56.936 174.8 56.769 A 0.173 0.173 0 0 1 174.8 56.762 A 0.576 0.576 0 0 1 174.82 56.603 Q 174.871 56.426 175.052 56.379 A 0.589 0.589 0 0 1 175.2 56.362 A 1.178 1.178 0 0 1 175.577 56.433 Q 176.109 56.614 176.898 57.26 A 9.364 9.364 0 0 1 176.9 57.262 Q 179.1 59.462 180.35 62.462 Q 181.6 65.462 181.6 68.662 Q 181.6 72.962 179.2 76.762 A 12.378 12.378 0 0 1 175.558 80.459 A 15.201 15.201 0 0 1 174.4 81.162 A 13.809 13.809 0 0 1 169.303 82.749 A 17.327 17.327 0 0 1 167.3 82.862 Z M 92.1 79.462 Q 91.1 79.462 88.95 79.212 Q 86.8 78.962 85 77.962 A 3.456 3.456 0 0 1 83.77 76.857 Q 83.2 75.999 83.2 74.762 Q 83.2 73.462 83.8 72.762 Q 84.2 72.262 84.6 72.262 Q 84.985 72.262 84.814 72.726 A 1.454 1.454 0 0 1 84.8 72.762 A 2.67 2.67 0 0 0 84.747 73.286 Q 84.747 74.387 85.695 75.404 A 5.499 5.499 0 0 0 85.9 75.612 A 9.155 9.155 0 0 0 86.95 76.49 Q 87.552 76.918 88.153 77.169 A 4.92 4.92 0 0 0 88.7 77.362 Q 89.7 77.562 90.6 77.712 Q 91.5 77.862 92.3 77.862 Q 96.3 77.862 99.6 75.812 A 24.913 24.913 0 0 0 105.342 70.856 A 27.948 27.948 0 0 0 105.55 70.612 A 68.031 68.031 0 0 0 109.63 65.26 A 61.105 61.105 0 0 0 110.3 64.262 Q 113.3 59.662 116.2 53.762 A 3748.363 3748.363 0 0 1 121.813 42.391 A 4095.96 4095.96 0 0 1 122.2 41.612 Q 125.3 35.362 128.75 29.462 A 70.28 70.28 0 0 1 133.801 21.94 A 60.871 60.871 0 0 1 136.3 18.912 A 32.985 32.985 0 0 1 141.451 14.148 A 27.674 27.674 0 0 1 145.3 11.762 A 16.126 16.126 0 0 1 147.947 10.63 Q 149.724 10.062 151.4 10.062 Q 153 10.062 154.3 10.462 A 0.602 0.602 0 0 1 154.42 10.504 Q 154.674 10.63 154.55 10.962 A 0.675 0.675 0 0 1 154.475 11.109 Q 154.333 11.315 154.068 11.275 A 0.714 0.714 0 0 1 154 11.262 Q 153.6 11.062 153.15 11.062 L 152.2 11.062 A 9.518 9.518 0 0 0 147.914 12.157 Q 144.955 13.64 141.846 17.134 A 37.371 37.371 0 0 0 141.3 17.762 Q 136.9 22.962 133.7 28.812 Q 130.5 34.662 127.8 40.812 Q 125.1 46.962 122.25 52.962 Q 119.4 58.962 115.5 64.462 Q 112.8 68.262 109.4 71.612 Q 106 74.962 101.9 77.062 Q 99.6 78.162 97.15 78.812 Q 94.7 79.462 92.1 79.462 Z" vector-effect="non-scaling-stroke"/></g></svg>